<svg width="80px" height="80px" viewBox="0 0 48 48" fill="none" xmlns="http://www.w3.org/2000/svg">
<path fill-rule="evenodd" clip-rule="evenodd" d="M19.176 21.647C19.064 21.7156 18.9665 21.8057 18.8893 21.912C18.812 22.0183 18.7565 22.1388 18.7258 22.2666C18.6952 22.3944 18.69 22.527 18.7106 22.6568C18.7313 22.7866 18.7773 22.911 18.846 23.023C19.765 24.521 20.546 26.008 21.066 27.359C21.1612 27.6066 21.3509 27.8062 21.5933 27.9139C21.8357 28.0217 22.1109 28.0287 22.3585 27.9335C22.6061 27.8383 22.8057 27.6486 22.9135 27.4062C23.0212 27.1638 23.0282 26.8886 22.933 26.641C22.355 25.137 21.507 23.536 20.551 21.977C20.4124 21.7509 20.1897 21.5892 19.9319 21.5273C19.674 21.4654 19.4021 21.5085 19.176 21.647ZM29.59 20.693C29.804 20.8495 29.947 21.0846 29.9877 21.3466C30.0284 21.6085 29.9634 21.8759 29.807 22.09C28.65 23.673 27.631 25.79 26.914 27.406C26.8607 27.526 26.7843 27.6344 26.6891 27.7249C26.5939 27.8154 26.4818 27.8862 26.3592 27.9334C26.2367 27.9806 26.106 28.0031 25.9747 27.9998C25.8434 27.9965 25.7141 27.9673 25.594 27.914C25.474 27.8607 25.3656 27.7843 25.2752 27.6891C25.1847 27.5939 25.1138 27.4818 25.0666 27.3592C25.0195 27.2366 24.9969 27.106 25.0002 26.9747C25.0036 26.8434 25.0327 26.714 25.086 26.594C25.81 24.964 26.9 22.678 28.193 20.91C28.3496 20.6961 28.5846 20.553 28.8466 20.5123C29.1086 20.4716 29.376 20.5366 29.59 20.693Z" fill="#1E3FAA"/>
<path fill-rule="evenodd" clip-rule="evenodd" d="M27.24 12.037C29.582 9.359 42.105 6 42.105 6C42.105 6 39.976 19.395 38.103 21.537C36.708 23.133 32.263 22.136 30.085 21.523C31.713 19.026 33.6 16.587 35.259 14.651C35.4283 14.4493 35.5111 14.1889 35.4896 13.9265C35.468 13.664 35.3438 13.4206 35.144 13.2492C34.9441 13.0778 34.6846 12.9921 34.422 13.0108C34.1593 13.0295 33.9146 13.151 33.741 13.349C32.068 15.301 30.129 17.799 28.431 20.396C27.477 18.62 25.388 14.155 27.24 12.037ZM11 30H6V42H11V39.957C12.02 39.915 13.526 39.861 14.047 39.882C15.834 39.955 17.167 40.381 18.517 40.812C19.775 41.213 21.046 41.619 22.709 41.746C23.127 41.778 23.534 41.819 23.929 41.858C25.352 42.002 26.615 42.13 27.659 41.746C28.991 41.256 36.605 37.529 37.557 36.548C38.509 35.568 38.033 32.92 35.082 33.41C33.626 33.652 31.939 34.348 30.408 34.979C28.837 35.626 27.431 36.206 26.611 36.156C24.993 36.058 20.711 35.274 20.711 35.274L25.628 35.334C25.628 35.334 26.323 35.37 27.278 34.685C28.233 34 29.086 32.037 27.658 32.037C26.23 32.037 24.708 31.547 24.708 31.547L18.616 30.174C18.616 30.174 16.522 29.782 15.666 30.174C14.96 30.497 12.018 31.551 11 31.914V30ZM8.878 9.67C8.878 9.67 19.213 12.442 21.145 14.651C22.638 16.358 21.029 19.913 20.219 21.443C19.1574 19.7759 18.0112 18.1641 16.785 16.614C16.7036 16.5109 16.6028 16.4249 16.4882 16.3608C16.3736 16.2966 16.2474 16.2557 16.117 16.2404C15.9866 16.225 15.8544 16.2355 15.7281 16.2712C15.6017 16.3069 15.4836 16.3671 15.3805 16.4485C15.2774 16.5299 15.1914 16.6307 15.1272 16.7453C15.0631 16.8599 15.0222 16.9861 15.0069 17.1165C14.9915 17.2469 15.002 17.3791 15.0377 17.5054C15.0734 17.6318 15.1336 17.7499 15.215 17.853C16.4068 19.3597 17.5203 20.9268 18.551 22.548C16.683 23.054 13.281 23.751 12.181 22.492C10.635 20.724 8.878 9.669 8.878 9.669" fill="#1E3FAA"/>
</svg>
