<svg width="60px" height="60px" viewBox="0 0 512 512" fill="none" xmlns="http://www.w3.org/2000/svg">
<g clip-path="url(#clip0_1_11)">
<path d="M507.068 188.5C488.763 138.44 428.964 121.892 387.732 149.292L332.494 103.432C347.424 54.955 312.545 1.63001 258.318 0.0570071C202.472 -1.56299 163.928 52.804 179.492 103.367L124.215 149.258C81.723 121.021 20.402 139.764 3.84797 191.662C-11.444 239.605 20.796 286.595 66 294.728L87.387 371.466C49.197 404.346 50.124 467.592 94.855 497.98C139.169 528.084 197.728 506.412 214.951 459.773H296.915C314.762 508.648 376.941 529.103 420.725 495.303C462.895 462.75 460.795 400.871 422.462 369.805L444.541 294.979C491.936 287.426 524.952 237.408 507.068 188.499M293.596 415.783H218.326C209.918 374.455 169.407 346.437 127.853 352.81L110.363 290.049C152.836 272.96 171.532 222.982 152.885 182.635L203.563 140.563C233.126 166.279 278.538 166.597 308.381 140.597L359.103 182.708C340.505 222.943 359.178 272.064 400.286 289.505L381.709 352.46C340.579 347.324 301.853 375.652 293.596 415.783Z" fill="#1E3FAA"/>
</g>
<defs>
<clipPath id="clip0_1_11">
<rect width="512" height="512" fill="white"/>
</clipPath>
</defs>
</svg>
